<svg width="60" height="60" viewBox="0 0 60 60" fill="none" xmlns="http://www.w3.org/2000/svg">
  <defs>
    <linearGradient id="bg" x1="0%" y1="0%" x2="100%" y2="100%">
      <stop offset="0%" style="stop-color:#3b82f6;stop-opacity:1" />
      <stop offset="100%" style="stop-color:#1e40af;stop-opacity:1" />
    </linearGradient>
    <linearGradient id="cert" x1="0%" y1="0%" x2="100%" y2="100%">
      <stop offset="0%" style="stop-color:#10b981;stop-opacity:1" />
      <stop offset="100%" style="stop-color:#059669;stop-opacity:1" />
    </linearGradient>
  </defs>
  
  <!-- 背景 -->
  <rect width="60" height="60" rx="16" fill="url(#bg)"/>
  
  <!-- 证书卡片 -->
  <rect x="12" y="16" width="36" height="28" rx="6" fill="url(#cert)"/>
  
  <!-- 顶部装饰线 -->
  <rect x="12" y="20" width="36" height="1" fill="#ffffff" opacity="0.4"/>
  
  <!-- 锁图标 -->
  <g transform="translate(20, 24)">
    <path d="M10 4C10 2.9 9.1 2 8 2S6 2.9 6 4V6H10V4Z" fill="#ffffff"/>
    <rect x="6" y="6" width="8" height="10" rx="1" fill="#ffffff"/>
    <circle cx="10" cy="11" r="1.2" fill="url(#cert)"/>
  </g>
  
  <!-- 盾牌图标 -->
  <g transform="translate(32, 24)">
    <path d="M10 2L6 4V10C6 14 10 18 10 18S14 14 14 10V4L10 2Z" fill="#ffffff"/>
    <path d="M8 10L9 11L12 8" stroke="url(#cert)" stroke-width="1.5" stroke-linecap="round" stroke-linejoin="round"/>
  </g>
  
  <!-- 底部标识 -->
  <text x="30" y="50" text-anchor="middle" fill="#ffffff" font-family="system-ui, sans-serif" font-size="9" font-weight="600">SSL</text>
</svg>